<mxfile host="65bd71144e">
    <diagram id="192c0928-15cb-acd7-617c-65a291657e41" name="001 - maps">
        <mxGraphModel dx="1799" dy="1139" grid="1" gridSize="10" guides="1" tooltips="1" connect="1" arrows="1" fold="1" page="1" pageScale="1" pageWidth="1100" pageHeight="850" background="#ffffff" math="0" shadow="0">
            <root>
                <mxCell id="0"/>
                <mxCell id="1" parent="0"/>
                <mxCell id="2" value="" style="rounded=0;whiteSpace=wrap;html=1;shadow=0;labelBackgroundColor=none;strokeColor=#080808;strokeWidth=2;fillColor=#ffffff;fontSize=14;fontColor=#000000;align=center;" parent="1" vertex="1">
                    <mxGeometry x="380" y="170" width="330" height="240" as="geometry"/>
                </mxCell>
                <mxCell id="3" value="Map" style="rounded=0;whiteSpace=wrap;html=1;shadow=0;labelBackgroundColor=none;strokeColor=#080808;strokeWidth=2;fillColor=#ffffff;fontSize=28;fontColor=#000000;align=center;" parent="1" vertex="1">
                    <mxGeometry x="490" y="100" width="120" height="60" as="geometry"/>
                </mxCell>
                <mxCell id="6" style="edgeStyle=orthogonalEdgeStyle;rounded=0;html=1;exitX=1;exitY=0.5;startArrow=none;startFill=0;endArrow=classic;endFill=1;jettySize=auto;orthogonalLoop=1;strokeColor=#000000;strokeWidth=3;fontSize=28;fontColor=#000000;" parent="1" source="4" target="5" edge="1">
                    <mxGeometry relative="1" as="geometry"/>
                </mxCell>
                <mxCell id="4" value="key" style="rounded=0;whiteSpace=wrap;html=1;shadow=0;labelBackgroundColor=none;strokeColor=#080808;strokeWidth=2;fillColor=#ffffff;fontSize=28;fontColor=#000000;align=center;" parent="1" vertex="1">
                    <mxGeometry x="400" y="190" width="120" height="60" as="geometry"/>
                </mxCell>
                <mxCell id="5" value="value" style="rounded=0;whiteSpace=wrap;html=1;shadow=0;labelBackgroundColor=none;strokeColor=#080808;strokeWidth=2;fillColor=#ffffff;fontSize=28;fontColor=#000000;align=center;" parent="1" vertex="1">
                    <mxGeometry x="570" y="190" width="120" height="60" as="geometry"/>
                </mxCell>
                <mxCell id="7" style="edgeStyle=orthogonalEdgeStyle;rounded=0;html=1;exitX=1;exitY=0.5;startArrow=none;startFill=0;endArrow=classic;endFill=1;jettySize=auto;orthogonalLoop=1;strokeColor=#000000;strokeWidth=3;fontSize=28;fontColor=#000000;" parent="1" source="8" target="9" edge="1">
                    <mxGeometry relative="1" as="geometry"/>
                </mxCell>
                <mxCell id="8" value="key" style="rounded=0;whiteSpace=wrap;html=1;shadow=0;labelBackgroundColor=none;strokeColor=#080808;strokeWidth=2;fillColor=#ffffff;fontSize=28;fontColor=#000000;align=center;" parent="1" vertex="1">
                    <mxGeometry x="400" y="260" width="120" height="60" as="geometry"/>
                </mxCell>
                <mxCell id="9" value="value" style="rounded=0;whiteSpace=wrap;html=1;shadow=0;labelBackgroundColor=none;strokeColor=#080808;strokeWidth=2;fillColor=#ffffff;fontSize=28;fontColor=#000000;align=center;" parent="1" vertex="1">
                    <mxGeometry x="570" y="260" width="120" height="60" as="geometry"/>
                </mxCell>
                <mxCell id="10" style="edgeStyle=orthogonalEdgeStyle;rounded=0;html=1;exitX=1;exitY=0.5;startArrow=none;startFill=0;endArrow=classic;endFill=1;jettySize=auto;orthogonalLoop=1;strokeColor=#000000;strokeWidth=3;fontSize=28;fontColor=#000000;" parent="1" source="11" target="12" edge="1">
                    <mxGeometry relative="1" as="geometry"/>
                </mxCell>
                <mxCell id="11" value="key" style="rounded=0;whiteSpace=wrap;html=1;shadow=0;labelBackgroundColor=none;strokeColor=#080808;strokeWidth=2;fillColor=#ffffff;fontSize=28;fontColor=#000000;align=center;" parent="1" vertex="1">
                    <mxGeometry x="400" y="330" width="120" height="60" as="geometry"/>
                </mxCell>
                <mxCell id="12" value="value" style="rounded=0;whiteSpace=wrap;html=1;shadow=0;labelBackgroundColor=none;strokeColor=#080808;strokeWidth=2;fillColor=#ffffff;fontSize=28;fontColor=#000000;align=center;" parent="1" vertex="1">
                    <mxGeometry x="570" y="330" width="120" height="60" as="geometry"/>
                </mxCell>
            </root>
        </mxGraphModel>
    </diagram>
    <diagram id="a19ba9d4-e6ad-f426-df49-c77e34462a4a" name="002 - other lang">
        <mxGraphModel dx="1799" dy="1139" grid="1" gridSize="10" guides="1" tooltips="1" connect="1" arrows="1" fold="1" page="1" pageScale="1" pageWidth="1100" pageHeight="850" background="#ffffff" math="0" shadow="0">
            <root>
                <mxCell id="0"/>
                <mxCell id="1" parent="0"/>
                <mxCell id="10" style="edgeStyle=orthogonalEdgeStyle;rounded=0;html=1;exitX=1;exitY=0.5;startArrow=classic;startFill=1;endArrow=classic;endFill=1;jettySize=auto;orthogonalLoop=1;strokeColor=#000000;strokeWidth=3;fontSize=18;fontColor=#000000;" parent="1" source="2" target="3" edge="1">
                    <mxGeometry relative="1" as="geometry"/>
                </mxCell>
                <mxCell id="2" value="Map" style="rounded=0;whiteSpace=wrap;html=1;shadow=0;labelBackgroundColor=none;strokeColor=#080808;strokeWidth=2;fillColor=#ffffff;fontSize=28;fontColor=#000000;align=center;" parent="1" vertex="1">
                    <mxGeometry x="290" y="190" width="120" height="60" as="geometry"/>
                </mxCell>
                <mxCell id="11" style="edgeStyle=orthogonalEdgeStyle;rounded=0;html=1;exitX=1;exitY=0.5;startArrow=classic;startFill=1;endArrow=classic;endFill=1;jettySize=auto;orthogonalLoop=1;strokeColor=#000000;strokeWidth=3;fontSize=18;fontColor=#000000;" parent="1" source="3" target="4" edge="1">
                    <mxGeometry relative="1" as="geometry"/>
                </mxCell>
                <mxCell id="3" value="Hash" style="rounded=0;whiteSpace=wrap;html=1;shadow=0;labelBackgroundColor=none;strokeColor=#080808;strokeWidth=2;fillColor=#ffffff;fontSize=28;fontColor=#000000;align=center;" parent="1" vertex="1">
                    <mxGeometry x="463" y="190" width="120" height="60" as="geometry"/>
                </mxCell>
                <mxCell id="12" style="edgeStyle=orthogonalEdgeStyle;rounded=0;html=1;exitX=1;exitY=0.5;startArrow=classic;startFill=1;endArrow=classic;endFill=1;jettySize=auto;orthogonalLoop=1;strokeColor=#000000;strokeWidth=3;fontSize=18;fontColor=#000000;" parent="1" source="4" target="5" edge="1">
                    <mxGeometry relative="1" as="geometry"/>
                </mxCell>
                <mxCell id="4" value="Object" style="rounded=0;whiteSpace=wrap;html=1;shadow=0;labelBackgroundColor=none;strokeColor=#080808;strokeWidth=2;fillColor=#ffffff;fontSize=28;fontColor=#000000;align=center;" parent="1" vertex="1">
                    <mxGeometry x="637" y="190" width="120" height="60" as="geometry"/>
                </mxCell>
                <mxCell id="5" value="Dict" style="rounded=0;whiteSpace=wrap;html=1;shadow=0;labelBackgroundColor=none;strokeColor=#080808;strokeWidth=2;fillColor=#ffffff;fontSize=28;fontColor=#000000;align=center;" parent="1" vertex="1">
                    <mxGeometry x="810" y="190" width="120" height="60" as="geometry"/>
                </mxCell>
                <mxCell id="6" value="Go" style="text;html=1;strokeColor=none;fillColor=none;align=center;verticalAlign=middle;whiteSpace=wrap;rounded=0;shadow=0;labelBackgroundColor=none;fontSize=18;fontColor=#000000;fontStyle=2" parent="1" vertex="1">
                    <mxGeometry x="295" y="260" width="110" height="30" as="geometry"/>
                </mxCell>
                <mxCell id="7" value="Ruby" style="text;html=1;strokeColor=none;fillColor=none;align=center;verticalAlign=middle;whiteSpace=wrap;rounded=0;shadow=0;labelBackgroundColor=none;fontSize=18;fontColor=#000000;fontStyle=2" parent="1" vertex="1">
                    <mxGeometry x="468" y="260" width="110" height="30" as="geometry"/>
                </mxCell>
                <mxCell id="8" value="Javascript" style="text;html=1;strokeColor=none;fillColor=none;align=center;verticalAlign=middle;whiteSpace=wrap;rounded=0;shadow=0;labelBackgroundColor=none;fontSize=18;fontColor=#000000;fontStyle=2" parent="1" vertex="1">
                    <mxGeometry x="642" y="260" width="110" height="30" as="geometry"/>
                </mxCell>
                <mxCell id="9" value="Python" style="text;html=1;strokeColor=none;fillColor=none;align=center;verticalAlign=middle;whiteSpace=wrap;rounded=0;shadow=0;labelBackgroundColor=none;fontSize=18;fontColor=#000000;fontStyle=2" parent="1" vertex="1">
                    <mxGeometry x="815" y="260" width="110" height="30" as="geometry"/>
                </mxCell>
            </root>
        </mxGraphModel>
    </diagram>
    <diagram name="003 - typed" id="90dd907b-916a-6cda-bd28-38c707c73094">
        <mxGraphModel dx="1799" dy="1139" grid="1" gridSize="10" guides="1" tooltips="1" connect="1" arrows="1" fold="1" page="1" pageScale="1" pageWidth="1100" pageHeight="850" background="#ffffff" math="0" shadow="0">
            <root>
                <mxCell id="0"/>
                <mxCell id="1" parent="0"/>
                <mxCell id="2" value="" style="rounded=0;whiteSpace=wrap;html=1;shadow=0;labelBackgroundColor=none;strokeColor=#080808;strokeWidth=2;fillColor=#ffffff;fontSize=14;fontColor=#000000;align=center;" parent="1" vertex="1">
                    <mxGeometry x="380" y="170" width="330" height="240" as="geometry"/>
                </mxCell>
                <mxCell id="3" value="Map" style="rounded=0;whiteSpace=wrap;html=1;shadow=0;labelBackgroundColor=none;strokeColor=#080808;strokeWidth=2;fillColor=#ffffff;fontSize=28;fontColor=#000000;align=center;" parent="1" vertex="1">
                    <mxGeometry x="490" y="100" width="120" height="60" as="geometry"/>
                </mxCell>
                <mxCell id="4" style="edgeStyle=orthogonalEdgeStyle;rounded=0;html=1;exitX=1;exitY=0.5;startArrow=none;startFill=0;endArrow=classic;endFill=1;jettySize=auto;orthogonalLoop=1;strokeColor=#000000;strokeWidth=3;fontSize=28;fontColor=#000000;" parent="1" source="5" target="6" edge="1">
                    <mxGeometry relative="1" as="geometry"/>
                </mxCell>
                <mxCell id="5" value="key" style="rounded=0;whiteSpace=wrap;html=1;shadow=0;labelBackgroundColor=none;strokeColor=#080808;strokeWidth=2;fillColor=#ffffff;fontSize=28;fontColor=#000000;align=center;" parent="1" vertex="1">
                    <mxGeometry x="400" y="190" width="120" height="60" as="geometry"/>
                </mxCell>
                <mxCell id="6" value="value" style="rounded=0;whiteSpace=wrap;html=1;shadow=0;labelBackgroundColor=none;strokeColor=#080808;strokeWidth=2;fillColor=#ffffff;fontSize=28;fontColor=#000000;align=center;" parent="1" vertex="1">
                    <mxGeometry x="570" y="190" width="120" height="60" as="geometry"/>
                </mxCell>
                <mxCell id="7" style="edgeStyle=orthogonalEdgeStyle;rounded=0;html=1;exitX=1;exitY=0.5;startArrow=none;startFill=0;endArrow=classic;endFill=1;jettySize=auto;orthogonalLoop=1;strokeColor=#000000;strokeWidth=3;fontSize=28;fontColor=#000000;" parent="1" source="8" target="9" edge="1">
                    <mxGeometry relative="1" as="geometry"/>
                </mxCell>
                <mxCell id="8" value="key" style="rounded=0;whiteSpace=wrap;html=1;shadow=0;labelBackgroundColor=none;strokeColor=#080808;strokeWidth=2;fillColor=#ffffff;fontSize=28;fontColor=#000000;align=center;" parent="1" vertex="1">
                    <mxGeometry x="400" y="260" width="120" height="60" as="geometry"/>
                </mxCell>
                <mxCell id="9" value="value" style="rounded=0;whiteSpace=wrap;html=1;shadow=0;labelBackgroundColor=none;strokeColor=#080808;strokeWidth=2;fillColor=#ffffff;fontSize=28;fontColor=#000000;align=center;" parent="1" vertex="1">
                    <mxGeometry x="570" y="260" width="120" height="60" as="geometry"/>
                </mxCell>
                <mxCell id="10" style="edgeStyle=orthogonalEdgeStyle;rounded=0;html=1;exitX=1;exitY=0.5;startArrow=none;startFill=0;endArrow=classic;endFill=1;jettySize=auto;orthogonalLoop=1;strokeColor=#000000;strokeWidth=3;fontSize=28;fontColor=#000000;" parent="1" source="11" target="12" edge="1">
                    <mxGeometry relative="1" as="geometry"/>
                </mxCell>
                <mxCell id="11" value="key" style="rounded=0;whiteSpace=wrap;html=1;shadow=0;labelBackgroundColor=none;strokeColor=#080808;strokeWidth=2;fillColor=#ffffff;fontSize=28;fontColor=#000000;align=center;" parent="1" vertex="1">
                    <mxGeometry x="400" y="330" width="120" height="60" as="geometry"/>
                </mxCell>
                <mxCell id="12" value="value" style="rounded=0;whiteSpace=wrap;html=1;shadow=0;labelBackgroundColor=none;strokeColor=#080808;strokeWidth=2;fillColor=#ffffff;fontSize=28;fontColor=#000000;align=center;" parent="1" vertex="1">
                    <mxGeometry x="570" y="330" width="120" height="60" as="geometry"/>
                </mxCell>
                <mxCell id="13" value="" style="shape=curlyBracket;whiteSpace=wrap;html=1;rounded=1;shadow=0;labelBackgroundColor=none;strokeColor=#b85450;strokeWidth=5;fillColor=#f8cecc;fontSize=18;fontColor=#000000;align=center;" parent="1" vertex="1">
                    <mxGeometry x="310" y="190" width="80" height="200" as="geometry"/>
                </mxCell>
                <mxCell id="14" value="All the same type!" style="text;html=1;strokeColor=#b85450;fillColor=#f8cecc;align=right;verticalAlign=middle;whiteSpace=wrap;rounded=0;shadow=0;labelBackgroundColor=none;fontSize=18;fontColor=#000000;" parent="1" vertex="1">
                    <mxGeometry x="200" y="270" width="110" height="40" as="geometry"/>
                </mxCell>
                <mxCell id="15" value="" style="shape=curlyBracket;whiteSpace=wrap;html=1;rounded=1;shadow=0;labelBackgroundColor=none;strokeColor=#b85450;strokeWidth=5;fillColor=#f8cecc;fontSize=18;fontColor=#000000;align=center;rotation=-180;" parent="1" vertex="1">
                    <mxGeometry x="700" y="190" width="80" height="200" as="geometry"/>
                </mxCell>
                <mxCell id="17" value="All the same type!" style="text;html=1;strokeColor=#b85450;fillColor=#f8cecc;align=left;verticalAlign=middle;whiteSpace=wrap;rounded=0;shadow=0;labelBackgroundColor=none;fontSize=18;fontColor=#000000;" parent="1" vertex="1">
                    <mxGeometry x="780" y="270" width="110" height="40" as="geometry"/>
                </mxCell>
            </root>
        </mxGraphModel>
    </diagram>
    <diagram id="3f52bd12-7fc2-9203-a9ff-7c15ea555526" name="004 - map vs struct">
        <mxGraphModel dx="1799" dy="1139" grid="1" gridSize="10" guides="1" tooltips="1" connect="1" arrows="1" fold="1" page="1" pageScale="1" pageWidth="1100" pageHeight="850" background="#ffffff" math="0" shadow="0">
            <root>
                <mxCell id="0"/>
                <mxCell id="1" parent="0"/>
                <mxCell id="2" value="Map" style="text;html=1;strokeColor=none;fillColor=none;align=center;verticalAlign=middle;whiteSpace=wrap;rounded=0;shadow=0;labelBackgroundColor=none;fontSize=28;fontColor=#000000;" parent="1" vertex="1">
                    <mxGeometry x="360" y="120" width="80" height="30" as="geometry"/>
                </mxCell>
                <mxCell id="3" value="Struct" style="text;html=1;strokeColor=none;fillColor=none;align=center;verticalAlign=middle;whiteSpace=wrap;rounded=0;shadow=0;labelBackgroundColor=none;fontSize=28;fontColor=#000000;" parent="1" vertex="1">
                    <mxGeometry x="655" y="120" width="80" height="30" as="geometry"/>
                </mxCell>
                <mxCell id="4" value="" style="endArrow=none;html=1;strokeColor=#000000;strokeWidth=3;fontSize=28;fontColor=#000000;" parent="1" edge="1">
                    <mxGeometry width="50" height="50" relative="1" as="geometry">
                        <mxPoint x="549" y="360" as="sourcePoint"/>
                        <mxPoint x="549" y="120" as="targetPoint"/>
                    </mxGeometry>
                </mxCell>
                <mxCell id="5" value="" style="endArrow=none;html=1;strokeColor=#000000;strokeWidth=3;fontSize=28;fontColor=#000000;" parent="1" edge="1">
                    <mxGeometry width="50" height="50" relative="1" as="geometry">
                        <mxPoint x="840" y="160" as="sourcePoint"/>
                        <mxPoint x="270" y="160" as="targetPoint"/>
                    </mxGeometry>
                </mxCell>
                <mxCell id="6" value="All keys must be the same type" style="rounded=0;whiteSpace=wrap;html=1;shadow=0;labelBackgroundColor=none;strokeColor=#080808;strokeWidth=2;fillColor=#ffffff;fontSize=12;fontColor=#000000;align=center;" parent="1" vertex="1">
                    <mxGeometry x="270" y="180" width="120" height="50" as="geometry"/>
                </mxCell>
                <mxCell id="7" value="All values must be the same type" style="rounded=0;whiteSpace=wrap;html=1;shadow=0;labelBackgroundColor=none;strokeColor=#080808;strokeWidth=2;fillColor=#ffffff;fontSize=12;fontColor=#000000;align=center;" parent="1" vertex="1">
                    <mxGeometry x="270" y="240" width="120" height="50" as="geometry"/>
                </mxCell>
                <mxCell id="8" value="Values can be of different type" style="rounded=0;whiteSpace=wrap;html=1;shadow=0;labelBackgroundColor=none;strokeColor=#080808;strokeWidth=2;fillColor=#ffffff;fontSize=12;fontColor=#000000;align=center;" parent="1" vertex="1">
                    <mxGeometry x="575" y="180" width="120" height="50" as="geometry"/>
                </mxCell>
                <mxCell id="9" value="Keys don't support indexing" style="rounded=0;whiteSpace=wrap;html=1;shadow=0;labelBackgroundColor=none;strokeColor=#080808;strokeWidth=2;fillColor=#ffffff;fontSize=12;fontColor=#000000;align=center;" parent="1" vertex="1">
                    <mxGeometry x="575" y="240" width="120" height="50" as="geometry"/>
                </mxCell>
                <mxCell id="10" value="Keys are indexed - we can iterate over them" style="rounded=0;whiteSpace=wrap;html=1;shadow=0;labelBackgroundColor=none;strokeColor=#080808;strokeWidth=2;fillColor=#ffffff;fontSize=12;fontColor=#000000;align=center;" parent="1" vertex="1">
                    <mxGeometry x="270" y="300" width="120" height="50" as="geometry"/>
                </mxCell>
                <mxCell id="11" value="Reference Type!" style="rounded=0;whiteSpace=wrap;html=1;shadow=0;labelBackgroundColor=none;strokeColor=#080808;strokeWidth=2;fillColor=#ffffff;fontSize=12;fontColor=#000000;align=center;" parent="1" vertex="1">
                    <mxGeometry x="400" y="300" width="120" height="50" as="geometry"/>
                </mxCell>
                <mxCell id="12" value="Value Type!" style="rounded=0;whiteSpace=wrap;html=1;shadow=0;labelBackgroundColor=none;strokeColor=#080808;strokeWidth=2;fillColor=#ffffff;fontSize=12;fontColor=#000000;align=center;" parent="1" vertex="1">
                    <mxGeometry x="575" y="300" width="120" height="50" as="geometry"/>
                </mxCell>
                <mxCell id="13" value="Use to represent a collection of related properties" style="rounded=0;whiteSpace=wrap;html=1;shadow=0;labelBackgroundColor=none;strokeColor=#080808;strokeWidth=2;fillColor=#ffffff;fontSize=12;fontColor=#000000;align=center;" parent="1" vertex="1">
                    <mxGeometry x="400" y="180" width="120" height="50" as="geometry"/>
                </mxCell>
                <mxCell id="14" value="Use to represent a &quot;thing&quot; with a lot of different properties" style="rounded=0;whiteSpace=wrap;html=1;shadow=0;labelBackgroundColor=none;strokeColor=#080808;strokeWidth=2;fillColor=#ffffff;fontSize=12;fontColor=#000000;align=center;" parent="1" vertex="1">
                    <mxGeometry x="705" y="240" width="120" height="50" as="geometry"/>
                </mxCell>
                <mxCell id="15" value="Don't need to know all the keys at compile time" style="rounded=0;whiteSpace=wrap;html=1;shadow=0;labelBackgroundColor=none;strokeColor=#080808;strokeWidth=2;fillColor=#ffffff;fontSize=12;fontColor=#000000;align=center;" parent="1" vertex="1">
                    <mxGeometry x="400" y="240" width="120" height="50" as="geometry"/>
                </mxCell>
                <mxCell id="16" value="You need to know all the different fields at compile time" style="rounded=0;whiteSpace=wrap;html=1;shadow=0;labelBackgroundColor=none;strokeColor=#080808;strokeWidth=2;fillColor=#ffffff;fontSize=12;fontColor=#000000;align=center;" parent="1" vertex="1">
                    <mxGeometry x="705" y="180" width="120" height="50" as="geometry"/>
                </mxCell>
            </root>
        </mxGraphModel>
    </diagram>
    <diagram id="679b380a-3d98-37ce-e44d-38b46d60c52d" name="005 - syntax">
        <mxGraphModel dx="1799" dy="1139" grid="1" gridSize="10" guides="1" tooltips="1" connect="1" arrows="1" fold="1" page="1" pageScale="1" pageWidth="1100" pageHeight="850" background="#ffffff" math="0" shadow="0">
            <root>
                <mxCell id="0"/>
                <mxCell id="1" parent="0"/>
                <mxCell id="3" value="" style="rounded=0;whiteSpace=wrap;html=1;shadow=0;labelBackgroundColor=none;strokeColor=#6c8ebf;strokeWidth=2;fillColor=#dae8fc;fontSize=32;fontColor=#000000;align=left;" parent="1" vertex="1">
                    <mxGeometry x="460" y="350" width="240" height="40" as="geometry"/>
                </mxCell>
                <mxCell id="5" value="" style="rounded=0;whiteSpace=wrap;html=1;shadow=0;labelBackgroundColor=none;strokeColor=#82b366;strokeWidth=2;fillColor=#d5e8d4;fontSize=32;fontColor=#000000;align=left;" parent="1" vertex="1">
                    <mxGeometry x="430" y="350" width="30" height="40" as="geometry"/>
                </mxCell>
                <mxCell id="6" value="" style="rounded=0;whiteSpace=wrap;html=1;shadow=0;labelBackgroundColor=none;strokeColor=#d6b656;strokeWidth=2;fillColor=#fff2cc;fontSize=32;fontColor=#000000;align=left;" parent="1" vertex="1">
                    <mxGeometry x="310" y="390" width="70" height="40" as="geometry"/>
                </mxCell>
                <mxCell id="7" value="" style="rounded=0;whiteSpace=wrap;html=1;shadow=0;labelBackgroundColor=none;strokeColor=#9673a6;strokeWidth=2;fillColor=#e1d5e7;fontSize=32;fontColor=#000000;align=left;" parent="1" vertex="1">
                    <mxGeometry x="390" y="390" width="70" height="40" as="geometry"/>
                </mxCell>
                <mxCell id="11" style="edgeStyle=orthogonalEdgeStyle;rounded=0;html=1;exitX=0.5;exitY=1;entryX=0.5;entryY=0;startArrow=none;startFill=0;endArrow=classic;endFill=1;jettySize=auto;orthogonalLoop=1;strokeColor=#000000;strokeWidth=3;fontSize=18;fontColor=#000000;" parent="1" source="8" target="3" edge="1">
                    <mxGeometry relative="1" as="geometry"/>
                </mxCell>
                <mxCell id="8" value="Type of the map" style="text;html=1;strokeColor=none;fillColor=none;align=center;verticalAlign=middle;whiteSpace=wrap;rounded=0;shadow=0;labelBackgroundColor=none;fontSize=18;fontColor=#000000;fontStyle=0" parent="1" vertex="1">
                    <mxGeometry x="535" y="240" width="90" height="50" as="geometry"/>
                </mxCell>
                <mxCell id="10" style="edgeStyle=orthogonalEdgeStyle;rounded=0;html=1;exitX=0.5;exitY=1;entryX=0.5;entryY=0;startArrow=none;startFill=0;endArrow=classic;endFill=1;jettySize=auto;orthogonalLoop=1;strokeColor=#000000;strokeWidth=3;fontSize=18;fontColor=#000000;" parent="1" source="9" target="5" edge="1">
                    <mxGeometry relative="1" as="geometry"/>
                </mxCell>
                <mxCell id="9" value="Argument name" style="text;html=1;strokeColor=none;fillColor=none;align=center;verticalAlign=middle;whiteSpace=wrap;rounded=0;shadow=0;labelBackgroundColor=none;fontSize=18;fontColor=#000000;fontStyle=0" parent="1" vertex="1">
                    <mxGeometry x="400" y="240" width="90" height="50" as="geometry"/>
                </mxCell>
                <mxCell id="13" style="edgeStyle=orthogonalEdgeStyle;rounded=0;html=1;exitX=0.5;exitY=0;entryX=0.5;entryY=1;startArrow=none;startFill=0;endArrow=classic;endFill=1;jettySize=auto;orthogonalLoop=1;strokeColor=#000000;strokeWidth=3;fontSize=18;fontColor=#000000;" parent="1" source="12" target="7" edge="1">
                    <mxGeometry relative="1" as="geometry"/>
                </mxCell>
                <mxCell id="12" value="Value for this step through the loop" style="text;html=1;strokeColor=none;fillColor=none;align=center;verticalAlign=middle;whiteSpace=wrap;rounded=0;shadow=0;labelBackgroundColor=none;fontSize=18;fontColor=#000000;fontStyle=0" parent="1" vertex="1">
                    <mxGeometry x="430" y="560" width="130" height="60" as="geometry"/>
                </mxCell>
                <mxCell id="15" style="edgeStyle=orthogonalEdgeStyle;rounded=0;html=1;exitX=0.5;exitY=0;startArrow=none;startFill=0;endArrow=classic;endFill=1;jettySize=auto;orthogonalLoop=1;strokeColor=#000000;strokeWidth=3;fontSize=18;fontColor=#000000;" parent="1" source="14" target="6" edge="1">
                    <mxGeometry relative="1" as="geometry"/>
                </mxCell>
                <mxCell id="14" value="Key for this step through the loop" style="text;html=1;strokeColor=none;fillColor=none;align=center;verticalAlign=middle;whiteSpace=wrap;rounded=0;shadow=0;labelBackgroundColor=none;fontSize=18;fontColor=#000000;fontStyle=0" parent="1" vertex="1">
                    <mxGeometry x="280" y="560" width="130" height="60" as="geometry"/>
                </mxCell>
                <mxCell id="2" value="&lt;div&gt;func printMap(c map[string]string) {&lt;/div&gt;&lt;div&gt;&amp;nbsp; &amp;nbsp; for color, hex := range c {&lt;/div&gt;&lt;div&gt;&amp;nbsp; &amp;nbsp;&amp;nbsp;&lt;/div&gt;&lt;div&gt;&amp;nbsp; &amp;nbsp; }&lt;/div&gt;&lt;div&gt;}&lt;/div&gt;" style="text;html=1;strokeColor=none;fillColor=none;align=left;verticalAlign=middle;whiteSpace=wrap;rounded=0;shadow=0;labelBackgroundColor=none;fontSize=32;fontColor=#000000;" parent="1" vertex="1">
                    <mxGeometry x="230" y="340" width="700" height="210" as="geometry"/>
                </mxCell>
            </root>
        </mxGraphModel>
    </diagram>
</mxfile>